mtllib materials.mtl
v 0.1334397 -2.384186E-07 0.2700001
v 0.1334399 0.1349999 0.2338269
v 0.1601572 0.1349998 0.2338269
v 0.1601572 -2.384186E-07 0.2700001
v 0.1334399 0.2338268 0.1350001
v 0.1601573 0.2338268 0.1350001
v 0.1334398 0.2699999 1.192093E-07
v 0.1601573 0.2699999 8.940697E-08
v 0.1334399 0.2338268 -0.135
v 0.1601574 0.2338268 -0.1349999
v 0.1334399 0.1349999 -0.2338268
v 0.1601574 0.1349999 -0.2338268
v 0.13344 -1.192093E-07 -0.2699999
v 0.1601574 -1.192093E-07 -0.2699999
v 0.1334398 -0.1350002 -0.2338268
v 0.1601573 -0.1350002 -0.2338268
v 0.1334398 -0.2338271 -0.135
v 0.1601573 -0.233827 -0.135
v 0.1334399 -0.2700002 0
v 0.1601572 -0.2700002 2.980232E-08
v 0.1334398 -0.2338271 0.135
v 0.1601572 -0.2338271 0.135
v 0.1334398 -0.1350001 0.2338269
v 0.1601572 -0.1350001 0.233827
v -0.1448429 -1.192093E-07 0.255
v -0.1448429 0.1274999 0.2208364
v 0.1750092 0.1274999 0.2208366
v 0.1750091 -1.192093E-07 0.2550001
v -0.1448428 0.2208364 0.1275
v 0.1750092 0.2208365 0.1275001
v -0.1448428 0.255 -2.980232E-08
v 0.1750093 0.255 8.940697E-08
v -0.1448427 0.2208364 -0.1275
v 0.1750092 0.2208365 -0.1274999
v -0.1448427 0.1274999 -0.2208365
v 0.1750092 0.1274999 -0.2208364
v -0.1448427 -1.192093E-07 -0.255
v 0.1750092 -1.192093E-07 -0.255
v -0.1448427 -0.1275002 -0.2208365
v 0.1750093 -0.1275002 -0.2208364
v -0.1448428 -0.2208366 -0.1275
v 0.1750092 -0.2208366 -0.1274998
v -0.1448428 -0.2550002 -2.980232E-08
v 0.175009 -0.2550001 1.490116E-07
v -0.1448429 -0.2208366 0.1275
v 0.1750091 -0.2208366 0.1275001
v -0.1448429 -0.1275001 0.2208365
v 0.1750091 -0.1275001 0.2208366
v -0.3044246 -0.1788777 0.1032748
v -0.3044247 -0.1032749 0.1788775
v 0.3263943 0.1032748 0.1788776
v 0.3263941 -3.576279E-07 0.20655
v -0.3044246 -0.2065502 -1.788139E-07
v -0.3044244 -0.1788777 -0.1032752
v -0.3044245 -0.1032751 -0.1788778
v -0.3044245 -1.192093E-07 -0.2065502
v -0.3044244 0.1032749 -0.1788778
v -0.3044245 0.1788776 -0.1032752
v -0.3044244 0.2065499 -3.278255E-07
v -0.3044246 0.1788776 0.1032749
v -0.3044246 0.1032749 0.1788773
v -0.3044246 -1.192093E-07 0.2065498
v 0.3263942 0.1788774 0.1032749
v 0.3263942 0.2065498 -2.980232E-08
v 0.3263943 0.1788772 -0.1032751
v 0.3263942 0.1032749 -0.1788775
v 0.3263942 -3.576279E-07 -0.2065501
v 0.3263943 -0.1032753 -0.1788775
v 0.3263942 -0.1788779 -0.1032749
v 0.3263941 -0.2065502 -2.980232E-08
v 0.3263942 -0.1788779 0.103275
v 0.3263942 -0.1032753 0.1788776
v -0.1711423 -2.384186E-07 0.2699998
v -0.1711421 0.1349999 0.2338267
v -0.1444248 0.1349999 0.2338268
v -0.1444248 -2.384186E-07 0.2699998
v -0.1711421 0.2338268 0.135
v -0.1444247 0.2338268 0.135
v -0.1711421 0.2700001 0
v -0.1444246 0.27 0
v -0.1711419 0.233827 -0.1350001
v -0.1444244 0.2338269 -0.135
v -0.1711419 0.1350001 -0.233827
v -0.1444244 0.1350001 -0.2338269
v -0.1711417 1.192093E-07 -0.2700002
v -0.1444243 1.192093E-07 -0.2700001
v -0.1711419 -0.135 -0.2338271
v -0.1444244 -0.1349999 -0.233827
v -0.1711419 -0.2338269 -0.1350003
v -0.1444245 -0.2338268 -0.1350003
v -0.1711419 -0.2700001 -3.278255E-07
v -0.1444246 -0.2700001 -2.980232E-07
v -0.1711421 -0.233827 0.1349996
v -0.1444247 -0.233827 0.1349997
v -0.1711421 -0.1350001 0.2338266
v -0.1444248 -0.1350001 0.2338267
vn 3.659342E-07 0.258819 0.9659259
vn 9.852569E-07 0.7071066 0.7071069
vn 1.313203E-06 0.9659259 0.258819
vn 1.653148E-06 0.9659258 -0.258819
vn 2.43054E-06 0.7071069 -0.7071068
vn 1.519749E-06 0.2588191 -0.9659258
vn 7.299422E-07 -0.258819 -0.9659259
vn 1.804351E-06 -0.7071068 -0.7071068
vn 2.788141E-06 -0.9659258 -0.258819
vn 2.28175E-06 -0.9659259 0.2588188
vn 4.001976E-07 -0.7071068 0.7071068
vn 2.677719E-07 -0.2588193 0.9659258
vn -1 4.084014E-08 -9.777273E-08
vn 1 -1.788139E-07 3.200388E-07
vn -4.758804E-07 0.2588192 0.9659258
vn -4.405742E-07 0.707107 0.7071066
vn -2.565375E-07 0.9659258 0.258819
vn -9.740702E-08 0.9659258 -0.258819
vn 1.751672E-07 0.7071068 -0.7071068
vn 2.414072E-07 0.2588193 -0.9659258
vn 1.621113E-07 -0.2588195 -0.9659258
vn 1.599909E-07 -0.7071071 -0.7071065
vn 1.063348E-07 -0.9659259 -0.2588188
vn -1.343362E-07 -0.9659259 0.2588188
vn -3.101563E-07 -0.7071069 0.7071068
vn -4.070862E-07 -0.2588191 0.9659258
vn -0.2814102 -0.6785309 0.6785308
vn 0.2953497 0.2472727 0.9228352
vn -0.2814098 -0.9268906 0.2483597
vn -0.2814096 -0.9268905 -0.2483602
vn -0.2814094 -0.6785314 -0.6785307
vn -0.2814088 -0.2483598 -0.9268908
vn -0.2814088 0.2483596 -0.9268908
vn -0.2814091 0.6785312 -0.6785311
vn -0.2814094 0.9268908 -0.2483593
vn -0.2814099 0.9268908 0.2483584
vn -0.2814099 0.6785309 0.6785311
vn -0.2814107 0.2483593 0.9268904
vn -0.2814105 -0.248359 0.9268906
vn -1 1.807064E-07 -5.449953E-07
vn 0.2953499 0.6755627 0.6755617
vn 0.2953501 0.9228351 0.247273
vn 0.29535 0.922835 -0.247273
vn 0.295349 0.6755624 -0.6755623
vn 0.2953486 0.2472734 -0.9228354
vn 0.2953483 -0.2472734 -0.9228355
vn 0.295348 -0.6755633 -0.675562
vn 0.2953478 -0.9228359 -0.2472724
vn 0.2953479 -0.9228359 0.247272
vn 0.2953481 -0.6755624 0.6755628
vn 0.295349 -0.247273 0.9228353
vn 1 -2.959965E-07 1.957063E-07
vn -2.076864E-07 0.2588186 0.965926
vn 5.036298E-07 0.7071064 0.7071072
vn 1.052621E-06 0.9659258 0.2588194
vn 1.683434E-06 0.9659259 -0.2588186
vn 2.743579E-06 0.7071072 -0.7071064
vn 2.031662E-06 0.2588196 -0.9659257
vn 1.303563E-06 -0.2588185 -0.965926
vn 2.285978E-06 -0.7071065 -0.7071071
vn 3.048722E-06 -0.9659257 -0.2588195
vn 2.251464E-06 -0.965926 0.2588184
vn 8.715861E-08 -0.7071071 0.7071065
vn -2.441412E-07 -0.2588197 0.9659257
vn -1 -7.836925E-08 -6.596863E-07
vn 1 -5.960461E-08 8.819522E-07
vt 0.09162976 0.1067023
vt 0.1037438 0.1136727
vt 0.1024113 0.1159884
vt 0.09029727 0.109018
vt 0.03991966 0.07890387
vt 0.05187193 0.08614805
vt 0.05048711 0.08843289
vt 0.03853483 0.08118869
vt -0.02415664 0.04032418
vt -0.01152921 0.04631441
vt -0.01267432 0.04872832
vt -0.02530175 0.04273807
vt -0.09273158 0.02787124
vt -0.07906917 0.03081638
vt -0.07963218 0.03342813
vt -0.09329458 0.030483
vt -0.1387347 0.06103862
vt -0.1248292 0.05963395
vt -0.1245607 0.06229218
vt -0.1384662 0.06369685
vt -0.1383531 0.1042583
vt -0.1253345 0.0991742
vt -0.1243626 0.1016629
vt -0.1373812 0.1067471
vt -0.1037437 0.1136728
vt -0.0916297 0.1067024
vt -0.09029722 0.1090181
vt -0.1024112 0.1159885
vt -0.05187172 0.08614831
vt -0.03991944 0.07890414
vt -0.03853463 0.08118899
vt -0.05048689 0.08843316
vt 0.01152943 0.04631498
vt 0.02415686 0.04032476
vt 0.02530197 0.04273865
vt 0.01267454 0.04872889
vt 0.07906926 0.03081694
vt 0.09273165 0.02787181
vt 0.09329465 0.03048355
vt 0.07963225 0.03342868
vt 0.1248292 0.05963422
vt 0.1387347 0.06103889
vt 0.1384661 0.0636971
vt 0.1245607 0.06229243
vt 0.1253345 0.09917419
vt 0.1383532 0.1042583
vt 0.1373813 0.106747
vt 0.1243626 0.1016629
vt -0.1330081 0.07888405
vt -0.119222 0.07658637
vt -0.1061341 0.08148955
vt -0.09725124 0.09227979
vt -0.09495357 0.1060659
vt -0.09985676 0.1191538
vt -0.110647 0.1280367
vt -0.1244331 0.1303343
vt -0.137521 0.1254312
vt -0.1464039 0.1146409
vt -0.1487015 0.1008549
vt -0.1437984 0.08776692
vt 0.1437984 0.08776691
vt 0.1487016 0.1008548
vt 0.1464039 0.1146409
vt 0.137521 0.1254312
vt 0.1244331 0.1303343
vt 0.110647 0.1280367
vt 0.09985679 0.1191538
vt 0.09495359 0.1060659
vt 0.09725127 0.09227981
vt 0.1061341 0.08148955
vt 0.1192221 0.07658636
vt 0.1330082 0.07888404
vt 0.105845 0.08277564
vt 0.117286 0.08935877
vt 0.101334 0.1170822
vt 0.089893 0.110499
vt 0.05467548 0.0553069
vt 0.06596373 0.06214862
vt 0.04938513 0.08950193
vt 0.03809686 0.08266021
vt -0.01187871 0.01534819
vt 4.719705E-05 0.02100564
vt -0.01366173 0.04990406
vt -0.02558764 0.04424661
vt -0.08648804 0.0007499634
vt -0.07358466 0.003531474
vt -0.08032471 0.03479846
vt -0.09322809 0.03201696
vt -0.1411453 0.03331247
vt -0.1280123 0.03198585
vt -0.1247977 0.0638091
vt -0.1379306 0.06513572
vt -0.1481147 0.07819543
vt -0.1358192 0.07339372
vt -0.1241839 0.1031875
vt -0.1364794 0.1079893
vt -0.117286 0.08935875
vt -0.105845 0.08277561
vt -0.089893 0.110499
vt -0.101334 0.1170821
vt -0.06596374 0.06214858
vt -0.05467548 0.05530686
vt -0.03809688 0.08266015
vt -0.04938513 0.08950188
vt -4.716742E-05 0.0210056
vt 0.01187873 0.01534814
vt 0.02558766 0.04424655
vt 0.01366176 0.049904
vt 0.07358462 0.00353143
vt 0.086488 0.0007499203
vt 0.09322806 0.03201691
vt 0.08032468 0.03479841
vt 0.1280123 0.03198583
vt 0.1411453 0.03331246
vt 0.1379306 0.06513571
vt 0.1247977 0.06380908
vt 0.1358192 0.07339374
vt 0.1481147 0.07819544
vt 0.1364793 0.1079893
vt 0.1241839 0.1031876
vt 0.1423554 0.02028269
vt 0.1292625 0.01860647
vt 0.1326182 0.0022701
vt 0.1432235 0.003627834
vt 0.1067778 0.08144579
vt 0.1182719 0.0879358
vt 0.1093891 0.1011171
vt 0.1000789 0.09586014
vt 0.07776934 -0.03569316
vt 0.06502668 -0.03224953
vt 0.06189864 -0.04863101
vt 0.07222019 -0.05142035
vt -0.006049007 -0.01935611
vt -0.01757421 -0.01292156
vt -0.02458614 -0.02805331
vt -0.01525073 -0.03326531
vt -0.07056668 0.02984784
vt -0.0816294 0.03704855
vt -0.08965056 0.0224267
vt -0.08068973 0.01659413
vt -0.1142795 0.06816308
vt -0.1257768 0.07464732
vt -0.132854 0.05954598
vt -0.1235412 0.05429374
vt -0.1355966 0.07585443
vt -0.1480269 0.08029541
vt -0.1524412 0.06421278
vt -0.1423726 0.06061557
vt -0.1257687 0.05963955
vt -0.138916 0.06081469
vt -0.1391476 0.04413885
vt -0.1284982 0.043187
vt -0.08206712 0.04982021
vt -0.09502961 0.0473287
vt -0.09065913 0.03123411
vt -0.08015952 0.03325222
vt -0.02015297 0.06774341
vt -0.03221903 0.06239136
vt -0.02432977 0.04769792
vt -0.01455626 0.05203309
vt 0.04222033 0.1006619
vt 0.03096891 0.09375983
vt 0.04073371 0.08023998
vt 0.04984736 0.0858307
vt 0.09780964 0.1184279
vt 0.08669233 0.1113118
vt 0.09671402 0.09798125
vt 0.105719 0.1037453
vt 0.1400045 0.09321411
vt 0.1280711 0.08757266
vt 0.1363124 0.07307374
vt 0.1459785 0.07764332
vt -0.1303807 0.08465944
vt -0.1198344 0.08290172
vt -0.1098221 0.08665265
vt -0.1030267 0.09490719
vt -0.101269 0.1054536
vt -0.1050199 0.1154658
vt -0.1132745 0.1222612
vt -0.1238208 0.1240189
vt -0.1338331 0.120268
vt -0.1406285 0.1120134
vt -0.1423862 0.1014671
vt -0.1386352 0.09145483
vt 0.06261688 0.0420563
vt 0.07365966 0.04928757
vt 0.06392998 0.06185665
vt 0.05498533 0.05599933
vt -0.0007628774 -0.007097083
vt 0.01073084 -0.0006064473
vt 0.001847414 0.01257433
vt -0.007462497 0.007316923
vt -0.08142062 -0.02218204
vt -0.06869154 -0.01868857
vt -0.07409444 -0.003740087
vt -0.084405 -0.006569809
vt -0.1403615 0.03557739
vt -0.1272721 0.03387432
vt -0.1264711 0.04974904
vt -0.1370736 0.05112853
vt -0.1325113 0.1085733
vt -0.1206068 0.102871
vt -0.1148924 0.1177032
vt -0.1245351 0.1223221
vt -0.087965 0.1333691
vt -0.07687379 0.1262123
vt -0.06933628 0.1402064
vt -0.07832015 0.1460034
vt -0.032565 0.1162035
vt -0.02132229 0.1092872
vt -0.01408782 0.1234403
vt -0.02319441 0.1290425
vt 0.02761748 0.08466642
vt 0.03968583 0.07931957
vt 0.04495781 0.09431472
vt 0.03518245 0.09864566
vt 0.08546328 0.06776525
vt 0.09842734 0.06528191
vt 0.1001768 0.08108024
vt 0.08967592 0.08309175
vt 0.1242438 0.07694503
vt 0.1373916 0.07811581
vt 0.1347371 0.09378751
vt 0.1240874 0.09283917
vt 0.1301741 0.09111952
vt 0.1426074 0.09555182
vt 0.1361056 0.1100561
vt 0.1260345 0.106466
vt 0.1386352 0.09145489
vt 0.1423862 0.1014672
vt 0.1406284 0.1120135
vt 0.133833 0.120268
vt 0.1238208 0.124019
vt 0.1132744 0.1222613
vt 0.1050199 0.1154659
vt 0.1012689 0.1054536
vt 0.1030267 0.09490724
vt 0.1098221 0.08665272
vt 0.1198343 0.08290177
vt 0.1303807 0.08465949
vt 0.1068202 0.08030249
vt 0.1189342 0.08727288
vt 0.1176017 0.08958862
vt 0.1054877 0.08261824
vt 0.05570681 0.05285655
vt 0.06765908 0.06010073
vt 0.06627426 0.06238556
vt 0.05432199 0.05514138
vt -0.01110213 0.01280548
vt 0.001525307 0.01879572
vt 0.0003801846 0.02120963
vt -0.01224724 0.01521938
vt -0.08631323 -0.001903036
vt -0.07265083 0.001042111
vt -0.07321383 0.003653866
vt -0.08687623 0.0007087261
vt -0.1417958 0.03073459
vt -0.1278904 0.02932993
vt -0.1276218 0.03198815
vt -0.1415273 0.03339281
vt -0.149433 0.0758869
vt -0.1364143 0.07080276
vt -0.1354424 0.07329144
vt -0.1484611 0.0783756
vt -0.1189342 0.08727296
vt -0.1068202 0.08030257
vt -0.1054877 0.08261833
vt -0.1176017 0.08958871
vt -0.06765886 0.060101
vt -0.0557066 0.05285682
vt -0.05432178 0.05514167
vt -0.06627405 0.06238585
vt -0.001525072 0.01879629
vt 0.01110236 0.01280606
vt 0.01224747 0.01521995
vt -0.0003799541 0.0212102
vt 0.07265092 0.001042667
vt 0.08631331 -0.001902474
vt 0.08687632 0.0007092726
vt 0.07321392 0.003654407
vt 0.1278903 0.0293302
vt 0.1417958 0.03073486
vt 0.1415273 0.03339306
vt 0.1276218 0.03198841
vt 0.1364143 0.07080273
vt 0.149433 0.07588686
vt 0.1484611 0.07837556
vt 0.1354424 0.07329141
vt -0.1330082 0.07888395
vt -0.1192221 0.07658629
vt -0.1061342 0.08148949
vt -0.0972513 0.09227975
vt -0.09495365 0.1060658
vt -0.09985686 0.1191537
vt -0.1106471 0.1280366
vt -0.1244332 0.1303343
vt -0.1375211 0.1254311
vt -0.146404 0.1146408
vt -0.1487016 0.1008547
vt -0.1437984 0.08776681
vt 0.1437984 0.0877668
vt 0.1487016 0.1008547
vt 0.146404 0.1146408
vt 0.1375211 0.125431
vt 0.1244332 0.1303343
vt 0.1106471 0.1280366
vt 0.09985688 0.1191537
vt 0.09495368 0.1060658
vt 0.09725133 0.09227975
vt 0.1061342 0.08148949
vt 0.1192221 0.07658628
vt 0.1330082 0.07888393
o group1622940438
g mesh1622940438
usemtl mat22
f 4/4/1 3/3/1 2/2/1 1/1/1
f 3/8/2 6/7/2 5/6/2 2/5/2
f 6/12/3 8/11/3 7/10/3 5/9/3
f 8/16/4 10/15/4 9/14/4 7/13/4
f 10/20/5 12/19/5 11/18/5 9/17/5
f 12/24/6 14/23/6 13/22/6 11/21/6
f 14/28/7 16/27/7 15/26/7 13/25/7
f 16/32/8 18/31/8 17/30/8 15/29/8
f 18/36/9 20/35/9 19/34/9 17/33/9
f 20/40/10 22/39/10 21/38/10 19/37/10
f 22/44/11 24/43/11 23/42/11 21/41/11
f 24/48/12 4/47/12 1/46/12 23/45/12
f 1/60/13 2/59/13 5/58/13 7/57/13 9/56/13 11/55/13 13/54/13 15/53/13 17/52/13 19/51/13 21/50/13 23/49/13
f 24/72/14 22/71/14 20/70/14 18/69/14 16/68/14 14/67/14 12/66/14 10/65/14 8/64/14 6/63/14 3/62/14 4/61/14
o group1553273990
g mesh1553273990
usemtl mat20
f 28/76/15 27/75/15 26/74/15 25/73/15
f 27/80/16 30/79/16 29/78/16 26/77/16
f 30/84/17 32/83/17 31/82/17 29/81/17
f 32/88/18 34/87/18 33/86/18 31/85/18
f 34/92/19 36/91/19 35/90/19 33/89/19
f 36/96/20 38/95/20 37/94/20 35/93/20
f 38/100/21 40/99/21 39/98/21 37/97/21
f 40/104/22 42/103/22 41/102/22 39/101/22
f 42/108/23 44/107/23 43/106/23 41/105/23
f 44/112/24 46/111/24 45/110/24 43/109/24
f 46/116/25 48/115/25 47/114/25 45/113/25
f 48/120/26 28/119/26 25/118/26 47/117/26
f 50/124/27 49/123/27 45/122/27 47/121/27
f 52/128/28 51/127/28 27/126/28 28/125/28
f 49/132/29 53/131/29 43/130/29 45/129/29
f 53/136/30 54/135/30 41/134/30 43/133/30
f 54/140/31 55/139/31 39/138/31 41/137/31
f 55/144/32 56/143/32 37/142/32 39/141/32
f 56/148/33 57/147/33 35/146/33 37/145/33
f 57/152/34 58/151/34 33/150/34 35/149/34
f 58/156/35 59/155/35 31/154/35 33/153/35
f 59/160/36 60/159/36 29/158/36 31/157/36
f 60/164/37 61/163/37 26/162/37 29/161/37
f 61/168/38 62/167/38 25/166/38 26/165/38
f 62/172/39 50/171/39 47/170/39 25/169/39
f 62/184/40 61/183/40 60/182/40 59/181/40 58/180/40 57/179/40 56/178/40 55/177/40 54/176/40 53/175/40 49/174/40 50/173/40
f 51/188/41 63/187/41 30/186/41 27/185/41
f 63/192/42 64/191/42 32/190/42 30/189/42
f 64/196/43 65/195/43 34/194/43 32/193/43
f 65/200/44 66/199/44 36/198/44 34/197/44
f 66/204/45 67/203/45 38/202/45 36/201/45
f 67/208/46 68/207/46 40/206/46 38/205/46
f 68/212/47 69/211/47 42/210/47 40/209/47
f 69/216/48 70/215/48 44/214/48 42/213/48
f 70/220/49 71/219/49 46/218/49 44/217/49
f 71/224/50 72/223/50 48/222/50 46/221/50
f 72/228/51 52/227/51 28/226/51 48/225/51
f 72/240/52 71/239/52 70/238/52 69/237/52 68/236/52 67/235/52 66/234/52 65/233/52 64/232/52 63/231/52 51/230/52 52/229/52
o group326118860
g mesh326118860
usemtl mat22
f 76/244/53 75/243/53 74/242/53 73/241/53
f 75/248/54 78/247/54 77/246/54 74/245/54
f 78/252/55 80/251/55 79/250/55 77/249/55
f 80/256/56 82/255/56 81/254/56 79/253/56
f 82/260/57 84/259/57 83/258/57 81/257/57
f 84/264/58 86/263/58 85/262/58 83/261/58
f 86/268/59 88/267/59 87/266/59 85/265/59
f 88/272/60 90/271/60 89/270/60 87/269/60
f 90/276/61 92/275/61 91/274/61 89/273/61
f 92/280/62 94/279/62 93/278/62 91/277/62
f 94/284/63 96/283/63 95/282/63 93/281/63
f 96/288/64 76/287/64 73/286/64 95/285/64
f 73/300/65 74/299/65 77/298/65 79/297/65 81/296/65 83/295/65 85/294/65 87/293/65 89/292/65 91/291/65 93/290/65 95/289/65
f 96/312/66 94/311/66 92/310/66 90/309/66 88/308/66 86/307/66 84/306/66 82/305/66 80/304/66 78/303/66 75/302/66 76/301/66
