# Alias OBJ Model File
# Exported from SketchUp, (c) 2000-2012 Trimble Navigation Limited
# File units = centimeters

mtllib ElwFor_Lantern.mtl

g Mesh1 ElwFor_Lantern_C01_1 Model

usemtl ElwFor_Lantern_Brown
v 12 0 -0.372121
vt -4.72441 0
vn 0 -1 -0
v 12 0 -25.3721
vt -4.72441 9.84252
v 37 0 -25.3721
vt -14.5669 9.84252
v 37 0 -0.372121
vt -14.5669 0
f 1/1/1 2/2/1 3/3/1 4/4/1 

vt 1.40963e-18 0.0524902
vn -0.999938 0.0111104 2.98353e-19
v 13.559 140.312 -4.68398
vt -1.69758 55.2968
vt -9.84252 0.0524902
f 1/5/2 5/6/2 2/7/2

v 13.9889 179 -2.36101
vt -0.783027 70.5293
f 5/6/2 1/5/2 6/8/2

vt 4.72441 -1.40381e-18
vn 2.67426e-17 0.0111104 0.999938
v 22.5 146.498 -1.99988
vt 8.85827 57.68
vt 5.50744 70.4768
f 1/9/3 7/10/3 6/11/3

v 26.5 146.498 -1.99988
vt 10.4331 57.68
f 7/10/3 1/9/3 8/12/3

v 35.0111 179 -2.36101
vt 13.7839 70.4768
f 1/9/3 9/13/3 8/12/3

vt 14.5669 -4.32841e-18
f 9/13/3 1/9/3 4/14/3

vt -1.21698e-17 -0.161845
vn 0.999938 0.0111104 -8.35389e-19
v 35.4354 140.815 -5.18713
vt 1.89567 55.2806
vt 0.783027 70.3149
f 4/15/4 10/16/4 9/17/4

v 35.7355 113.801 -8.87212
vt 3.34646 44.6446
f 10/16/4 4/15/4 11/18/4

vt 9.84252 -0.161845
f 11/18/4 4/15/4 3/19/4

v 35.7355 113.801 -16.8721
vt 6.49606 44.6446
f 11/18/4 3/19/4 12/20/4

v 35.6112 124.991 -16.8721
vt 6.49606 49.0502
f 12/20/4 3/19/4 13/21/4

v 35.4354 140.815 -20.5571
vt 7.94684 55.2806
f 13/21/4 3/19/4 14/22/4

v 35.2646 156.189 -20.561
vt 7.94839 61.3336
f 14/22/4 3/19/4 15/23/4

v 35.0111 179 -23.3832
vt 9.05949 70.3149
f 15/23/4 3/19/4 16/24/4

vt -4.72441 -0.109355
vn -4.29629e-18 0.0111104 -0.999938
v 13.9889 179 -23.3832
vt -5.50744 70.3674
vt -13.7839 70.3674
vt -14.5669 -0.109355
f 2/25/5 17/26/5 16/27/5 3/28/5 

v 13.559 140.312 -21.0603
vt -8.14494 55.2968
vt -9.05949 70.5293
f 2/7/2 18/29/2 17/30/2

f 2/7/2 5/6/2 18/29/2

vt 1.69758 6.60699
vn 0.0229939 -0.999736 2.12452e-15
v 1 140.023 -4.39512
vt 1.58386 1.66119
v 1 140.023 -21.3491
vt 8.25866 1.66119
vt 8.14494 6.60699
f 5/31/6 19/32/6 20/33/6 18/34/6 

v 13.7409 156.684 -4.68816
vt 5.44746 61.6866
vn 0.0229939 6.02128e-15 0.999736
v 1 156.977 -4.39512
vt 0.430016 61.802
vt 0.430016 55.1272
vt 5.37582 55.2409
f 21/35/7 22/36/7 19/37/7 5/38/7 

v 13.7409 156.684 -21.0561
vt 8.14329 -3.98997
vn 0.0229939 0.999736 -1.0669e-15
v 1 156.977 -21.3491
vt 8.25866 1.02747
vt 1.58386 1.02747
vt 1.69923 -3.98997
f 23/39/8 24/40/8 22/41/8 21/42/8 

vt -5.1495 55.2409
vn 0.0229939 6.02068e-15 -0.999736
vt -0.203698 55.1272
vt -0.203698 61.802
vt -5.22114 61.6866
f 18/43/9 20/44/9 24/45/9 23/46/9 

v 3.92539e-12 141 -20.3719
vt -5.50331 55.5119
vn -0.810166 -0.414507 -0.414507
v 0 156 -20.3719
vt -5.50331 61.4172
vn -0.810166 0.414507 -0.414507
vt -6.0538 61.802
vt -6.0538 55.1272
f 25/47/10 26/48/11 24/49/11 20/50/10 

vt -7.87391 61.4172
vn -1 -2.61702e-13 -0
vt -7.87391 55.5119
v 3.92539e-12 141 -5.37239
vt -1.96861 55.5119
v 0 156 -5.37239
vt -1.96861 61.4172
f 26/51/12 25/52/12 27/53/12 28/54/12 

vt -1.96861 38.7989
vn -0.810166 -0.414507 0.414507
vt -7.87391 38.7989
vt -8.25866 38.2485
vt -1.58386 38.2485
f 27/55/13 25/56/10 20/57/10 19/58/13 

vt -1.37592 61.4172
vn -0.810166 0.414507 0.414507
vt -1.37592 55.5119
vt -0.825435 55.1272
vt -0.825435 61.802
f 28/59/14 27/60/13 19/61/13 22/62/14 

vt -7.87391 42.9263
vt -1.96861 42.9263
vt -1.58386 43.4768
vt -8.25866 43.4768
f 26/63/11 28/64/14 22/65/14 24/66/11 

vt -8.14329 61.7429
f 23/67/2 17/30/2 18/29/2

vt -1.69923 61.7429
f 21/68/2 17/30/2 23/67/2

f 21/68/2 6/8/2 17/30/2

f 6/8/2 21/68/2 5/6/2

v 15.0001 180 -3.37218
vt -1.18113 54.0298
vn -0.405224 0.819504 0.405224
v 15.0001 180 -22.3721
vt -8.66139 54.0298
vn -0.405224 0.819504 -0.405224
vt -9.05949 53.4699
vt -0.783027 53.4699
f 29/69/15 30/70/16 17/71/16 6/72/15 

v 33.9999 180 -22.3721
vt 13.3858 8.66139
vn 0 1 -0
vt 5.90554 8.66139
vt 5.90554 1.18113
v 33.9999 180 -3.37218
vt 13.3858 1.18113
f 31/73/17 30/74/17 29/75/17 32/76/17 

vt -5.90554 43.6723
vt -13.3858 43.6723
vn 0.405224 0.819504 -0.405224
vt -13.7839 43.1124
vt -5.50744 43.1124
f 30/77/16 31/78/18 16/79/18 17/80/16 

vt 8.66139 40.3132
vt 1.18113 40.3132
vn 0.405224 0.819504 0.405224
vt 0.783027 39.7533
vt 9.05949 39.7533
f 31/81/18 32/82/19 9/83/19 16/84/18 

vt 13.3858 50.6706
vt 5.90554 50.6706
vt 5.50744 50.1107
vt 13.7839 50.1107
f 32/85/19 29/86/15 6/87/15 9/88/19 

v 22.5 150.498 -2.04432
vt 8.85827 59.2548
f 6/11/3 33/89/3 9/13/3

f 6/11/3 7/10/3 33/89/3

usemtl ElwFor_Lantern_Grey
vt -0.658346 59.2511
vn -1 0 -0
vt -0.640849 57.6764
v 22.5 146.52 -0
vt 0.146504 57.6851
v 22.5 150.52 -0.0444417
vt 0.129007 59.2598
f 33/90/20 7/91/20 34/92/20 35/93/20 

vt 8.85827 1.5099e-14
vn 0 -0.999938 0.0111104
vt 10.4331 1.5099e-14
v 26.5 146.52 -0
vt 10.4331 0.787402
vt 8.85827 0.787402
f 7/94/21 8/95/21 36/96/21 34/97/21 

vt 0.640849 57.6764
vn 1 0 -0
v 26.5 150.498 -2.04432
vt 0.658346 59.2511
v 26.5 150.52 -0.0444417
vt -0.129007 59.2598
vt -0.146504 57.6851
f 8/98/22 37/99/22 38/100/22 36/101/22 

usemtl ElwFor_Lantern_Brown
vt 10.4331 59.2548
f 8/12/3 9/13/3 37/102/3

f 37/102/3 9/13/3 33/89/3

usemtl ElwFor_Lantern_Grey
vt -10.4331 1.52101e-14
vn 0 0.999938 -0.0111104
vt -8.85827 1.52101e-14
vt -8.85827 0.787402
vt -10.4331 0.787402
f 37/103/23 33/104/23 35/105/23 38/106/23 

vn 0 0.0111104 0.999938
f 34/10/24 36/12/24 38/102/24 35/89/24 

usemtl ElwFor_Lantern_Brown
v 35.2646 156.189 -5.18321
vt 1.89413 61.3336
f 39/107/4 16/24/4 9/17/4

f 16/24/4 39/107/4 15/23/4

vt 1.89413 -12.4661
vn 0.0229939 0.999736 -1.34578e-15
v 84 155.068 -6.30412
vt 2.33543 -31.6583
v 84 155.068 -19.4401
vt 7.50709 -31.6583
vt 7.94839 -12.4661
f 39/108/25 40/109/25 41/110/25 15/111/25 

vt 13.9908 55.439
vn 0.0229939 5.94051e-15 0.999736
v 84 141.932 -6.30412
vt 33.1158 55.8787
vt 33.1158 61.0504
vt 13.9236 61.4917
f 10/112/26 42/113/26 40/114/26 39/115/26 

vt 1.89567 15.222
vn 0.0229939 -0.999736 2.03773e-15
v 51.8121 141.192 -8.87212
vt 3.34646 21.6712
vt 2.33543 34.347
f 10/116/27 43/117/27 42/118/27

v 51.8121 141.192 -16.8721
vt 6.49606 21.6712
f 43/117/27 10/116/27 44/119/27

vt 7.94684 15.222
f 14/120/27 44/119/27 10/116/27

v 84 141.932 -19.4401
vt 7.50709 34.347
f 44/119/27 14/120/27 45/121/27

vt -13.6973 61.4917
vn 0.0229939 5.76396e-15 -0.999736
vt -32.8895 61.0504
vt -32.8895 55.8787
vt -13.7645 55.439
f 15/122/28 41/123/28 45/124/28 14/125/28 

vt -17.7452 55.8787
vn 0.822684 -0.40199 -0.40199
vt -17.7452 61.0504
vn 0.822684 0.40199 -0.40199
v 85 154.045 -18.4169
vt -18.3085 60.6475
v 85 142.955 -18.4169
vt -18.3085 56.2816
f 45/126/29 41/127/30 46/128/30 47/129/29 

vt 7.50709 20.5484
vt 2.33543 20.5484
vn 0.822684 0.40199 0.40199
v 85 154.045 -7.32739
vt 2.73829 19.9851
vt 7.10423 19.9851
f 41/130/30 40/131/31 48/132/31 46/133/30 

vt 24.7845 61.0504
vt 24.7845 55.8787
vn 0.822684 -0.40199 0.40199
v 85 142.955 -7.32739
vt 25.3478 56.2816
vt 25.3478 60.6475
f 40/134/31 42/135/32 49/136/32 48/137/31 

vt 2.33543 63.0781
vt 7.50709 63.0781
vt 7.10423 63.6414
vt 2.73829 63.6414
f 42/138/32 45/139/29 47/140/29 49/141/32 

v 73.5 141.691 -15.3721
vt 5.90551 30.212
f 42/118/27 50/142/27 45/121/27

v 73.5 141.691 -13.8721
vt 5.31496 30.212
f 42/118/27 51/143/27 50/142/27

v 73.5 141.691 -11.8721
vt 4.52756 30.212
f 42/118/27 52/144/27 51/143/27

v 73.5 141.691 -10.3721
vt 3.93701 30.212
f 42/118/27 53/145/27 52/144/27

v 72.5 141.668 -10.3721
vt 3.93701 29.8182
f 42/118/27 54/146/27 53/145/27

v 63.3921 141.458 -8.87212
vt 3.34646 26.2315
f 42/118/27 55/147/27 54/146/27

f 42/118/27 43/117/27 55/147/27

vt 14.0691 44.8037
vn 0 0 1
vt 24.9575 55.6921
vt 20.3984 55.5873
v 35.6112 124.991 -8.87212
vt 14.0202 49.209
f 11/148/33 55/149/33 43/150/33 56/151/33 

vt 6.49606 41.6294
vn 0.707107 -0.707107 -1.13958e-15
v 63.3921 141.458 -16.8721
vt 6.49606 57.0279
vt 3.34646 57.0279
vt 3.34646 41.6294
f 12/152/34 57/153/34 55/154/34 11/155/34 

vt -14.0202 49.209
vn 0 0 -1
vt -20.3984 55.5873
vt -24.9575 55.6921
vt -14.0691 44.8037
f 13/156/35 44/157/35 57/158/35 12/159/35 

vt -3.34646 44.7098
vn -0.707107 0.707107 3.1655e-16
vt -3.34646 53.73
vt -6.49606 53.73
vt -6.49606 44.7098
f 56/160/36 43/161/36 44/162/36 13/163/36 

vt 3.34646 49.0502
f 14/22/4 56/164/4 13/21/4

f 10/16/4 56/164/4 14/22/4

f 56/164/4 10/16/4 11/18/4

vt 6.49606 26.2315
f 44/119/27 45/121/27 57/165/27

v 72.5 141.668 -15.3721
vt 5.90551 29.8182
f 57/165/27 45/121/27 58/166/27

f 58/166/27 45/121/27 50/142/27

usemtl ElwFor_Lantern_Grey
v 72.5 137.955 -15.3721
vt -28.5433 54.313
vn 1.35358e-13 -2.95952e-31 -1
vt -28.5433 55.7746
vt -28.937 55.7837
v 73.5 137.955 -15.3721
vt -28.937 54.313
f 59/167/37 58/168/37 50/169/37 60/170/37 

v 72.5 137.955 -10.3721
vt -3.93701 54.313
vn -1 4.01575e-15 -1.16377e-13
vt -3.93701 55.7746
v 72.5 141.668 -11.8721
vt -4.52756 55.7746
v 72.5 139.455 -11.8721
vt -4.52756 54.9035
v 72.5 139.455 -13.8721
vt -5.31496 54.9035
v 72.5 141.668 -13.8721
vt -5.31496 55.7746
vt -5.90551 55.7746
vt -5.90551 54.313
f 61/171/38 54/172/38 62/173/38 63/174/38 64/175/38 65/176/38 58/177/38 59/178/38 

v 73.5 137.955 -10.3721
vt 28.937 54.313
vn -1.35344e-13 -1.21532e-15 1
vt 28.937 55.7837
vt 28.5433 55.7746
vt 28.5433 54.313
f 66/179/39 53/180/39 54/181/39 61/182/39 

vt 5.90551 54.313
vn 1 4.04529e-15 1.16999e-13
vt 5.90551 55.7837
vt 5.31496 55.7837
v 73.5 139.455 -13.8721
vt 5.31496 54.9035
v 73.5 139.455 -11.8721
vt 4.52756 54.9035
vt 4.52756 55.7837
vt 3.93701 55.7837
vt 3.93701 54.313
f 60/183/40 50/184/40 51/185/40 67/186/40 68/187/40 52/188/40 53/189/40 66/190/40 

usemtl ElwFor_Lantern_Brown
vt 28.937 54.9035
vn -1.35358e-13 1.09085e-27 1
vt 28.5433 54.9035
f 67/191/41 51/180/41 65/181/41 64/192/41 

vt 5.31496 29.8182
f 52/144/27 65/193/27 51/143/27

vt 4.52756 29.8182
f 65/193/27 52/144/27 62/194/27

usemtl ElwFor_Lantern_Grey
vt -28.5433 54.9035
vn 1.35358e-13 -1.63711e-27 -1
vt -28.937 54.9035
f 63/195/42 62/168/42 52/169/42 68/196/42 

vt 28.5433 5.31496
vt 28.5433 4.52756
vt 28.937 4.52756
vt 28.937 5.31496
f 64/197/17 63/198/17 68/199/17 67/200/17 

usemtl ElwFor_Lantern_Brown
f 62/194/27 58/166/27 65/193/27

f 54/146/27 58/166/27 62/194/27

f 55/147/27 58/166/27 54/146/27

f 57/165/27 58/166/27 55/147/27

usemtl ElwFor_Lantern_Grey
vt -28.5433 3.93701
vt -28.5433 5.90551
vt -28.937 5.90551
vt -28.937 3.93701
f 61/201/1 59/202/1 60/203/1 66/204/1 

usemtl ElwFor_Lantern_Brown
vt 2.73829 60.6475
vn 1 2.62023e-13 -1.98649e-30
vt 2.73829 56.2816
vt 7.10423 56.2816
vt 7.10423 60.6475
f 48/205/43 49/206/43 47/207/43 46/208/43 

f 9/17/4 10/16/4 39/107/4

g Mesh2 ElwFor_Lantern_C01_1 Model

usemtl ElwFor_Lantern_Grey
v 26.5 146.52 -25.7442
vt -10.4331 57.5706
vn 0 0.0111104 -0.999938
v 22.5 146.52 -25.7442
vt -8.85827 57.5706
v 22.5 150.52 -25.6998
vt -8.85827 59.1454
v 26.5 150.52 -25.6998
vt -10.4331 59.1454
f 69/209/44 70/210/44 71/211/44 72/212/44 

v 26.5 146.498 -23.7444
vt -10.4331 9.84191
vn 1.7486e-19 -0.999938 -0.0111104
v 22.5 146.498 -23.7444
vt -8.85827 9.84191
vt -8.85827 10.6293
vt -10.4331 10.6293
f 73/213/45 74/214/45 70/215/45 69/216/45 

vt -9.20167 57.6764
v 22.5 150.498 -23.6999
vt -9.18417 59.2511
vt -9.97153 59.2598
vt -9.98902 57.6851
f 74/217/20 75/218/20 71/219/20 70/220/20 

vt 8.85827 9.84191
vn 1.7486e-19 0.999938 0.0111104
v 26.5 150.498 -23.6999
vt 10.4331 9.84191
vt 10.4331 10.6293
vt 8.85827 10.6293
f 75/221/46 76/222/46 72/223/46 71/224/46 

vt 9.18417 59.2511
vt 9.20167 57.6764
vt 9.98902 57.6851
vt 9.97153 59.2598
f 76/225/22 73/226/22 69/227/22 72/228/22 

g Mesh3 ElwFor_Lantern_C03_1 ElwFor_Lantern_C02_1 Model

v 85 91.955 -0.872121
vt 0 1.9685
v 85 87.955 -0.872121
vt 0 0.393701
v 85 87.955 -24.8721
vt 9.44882 0.393701
v 85 91.955 -24.8721
vt 9.44882 1.9685
f 77/229/22 78/230/22 79/231/22 80/232/22 

v 61 91.955 -0.872121
v 61 87.955 -0.872121
f 81/229/33 82/230/33 78/231/33 77/232/33 

v 61 91.955 -24.8721
vt -9.44882 1.9685
v 61 87.955 -24.8721
vt -9.44882 0.393701
f 83/233/20 84/234/20 82/230/20 81/229/20 

f 80/233/35 79/234/35 84/230/35 83/229/35 

v 84 86.955 -23.8721
vt -9.05512 6.40294
vn 0.408248 -0.816497 -0.408248
v 62 86.955 -23.8721
vt -0.393701 6.40294
vn -0.408248 -0.816497 -0.408248
vt -1.41771e-30 6.95971
vt -9.44882 6.95971
f 85/235/47 86/236/48 84/237/48 79/238/47 

v 84 86.955 -1.87212
vt -9.05512 0.393701
v 62 86.955 -1.87212
vt -0.393701 0.393701
vt -0.393701 9.05512
vt -9.05512 9.05512
f 87/239/1 88/240/1 86/241/1 85/242/1 

vt 0.393701 -0.278388
vn -0.408248 -0.816497 0.408248
vt 9.05512 -0.278388
vn 0.408248 -0.816497 0.408248
vt 9.44882 0.278388
vt 0 0.278388
f 88/243/49 87/244/50 78/245/50 82/246/49 

vt 0.393701 6.40294
vt 9.05512 6.40294
vt 9.44882 6.95971
vt 1.27697e-17 6.95971
f 87/247/50 85/248/47 79/249/47 78/250/50 

vt -9.05512 -0.278388
vt -0.393701 -0.278388
vt -9.44882 0.278388
f 86/251/48 88/252/49 82/246/49 84/253/48 

vt 0 9.44882
v 61.5 91.955 -24.3721
vt 0.19685 9.25197
vt 9.44882 9.44882
f 83/254/17 89/255/17 80/256/17

v 61.5 91.955 -1.37212
vt 0.19685 0.19685
f 89/255/17 83/254/17 90/257/17

vt 0 0
f 81/258/17 90/257/17 83/254/17

vt 9.44882 0
f 90/257/17 81/258/17 77/259/17

v 64 91.955 -1.37212
vt 1.1811 0.19685
f 90/257/17 77/259/17 91/260/17

v 72.5 91.955 -1.37212
vt 4.52756 0.19685
f 91/260/17 77/259/17 92/261/17

v 73.5 91.955 -1.37212
vt 4.92126 0.19685
f 92/261/17 77/259/17 93/262/17

v 73.5 91.955 -1.87212
vt 4.92126 0.393701
f 93/262/17 77/259/17 94/263/17

v 82 91.955 -1.37212
vt 8.26772 0.19685
f 94/263/17 77/259/17 95/264/17

v 84.5 91.955 -1.37212
vt 9.25197 0.19685
f 95/264/17 77/259/17 96/265/17

v 84.5 91.955 -3.87212
vt 9.25197 1.1811
f 96/265/17 77/259/17 97/266/17

v 84.5 91.955 -21.8721
vt 9.25197 8.26772
f 97/266/17 77/259/17 98/267/17

v 84.5 91.955 -24.3721
vt 9.25197 9.25197
f 98/267/17 77/259/17 99/268/17

f 80/256/17 99/268/17 77/259/17

v 82 91.955 -24.3721
vt 8.26772 9.25197
f 80/256/17 100/269/17 99/268/17

v 73.5 91.955 -24.3721
vt 4.92126 9.25197
f 80/256/17 101/270/17 100/269/17

v 72.5 91.955 -24.3721
vt 4.52756 9.25197
f 80/256/17 102/271/17 101/270/17

v 64 91.955 -24.3721
vt 1.1811 9.25197
f 80/256/17 103/272/17 102/271/17

f 80/256/17 89/255/17 103/272/17

v 61.5 91.955 -3.87212
vt 0.19685 1.1811
v 64 91.955 -1.87212
vt 1.1811 0.393701
v 72.5 91.955 -1.87212
vt 4.52756 0.393701
v 82 91.955 -1.87212
vt 8.26772 0.393701
v 84 91.955 -3.87212
vt 9.05512 1.1811
v 84 91.955 -12.3721
vt 9.05512 4.52756
v 84.5 91.955 -12.3721
vt 9.25197 4.52756
v 84.5 91.955 -13.3721
vt 9.25197 4.92126
v 84 91.955 -13.3721
vt 9.05512 4.92126
v 84 91.955 -21.8721
vt 9.05512 8.26772
v 82 91.955 -23.8721
vt 8.26772 9.05512
v 73.5 91.955 -23.8721
vt 4.92126 9.05512
v 72.5 91.955 -23.8721
vt 4.52756 9.05512
v 64 91.955 -23.8721
vt 1.1811 9.05512
v 61.5 91.955 -21.8721
vt 0.19685 8.26772
v 62 91.955 -21.8721
vt 0.393701 8.26772
v 62 91.955 -13.3721
vt 0.393701 4.92126
v 61.5 91.955 -13.3721
vt 0.19685 4.92126
v 61.5 91.955 -12.3721
vt 0.19685 4.52756
v 62 91.955 -12.3721
vt 0.393701 4.52756
v 62 91.955 -3.87212
vt 0.393701 1.1811
f 104/273/17 90/257/17 91/260/17 105/274/17 106/275/17 92/261/17 93/262/17 94/263/17 107/276/17 95/264/17 96/265/17 97/266/17 108/277/17 109/278/17 110/279/17 111/280/17 112/281/17 113/282/17 98/267/17 99/268/17 100/269/17 114/283/17 115/284/17 101/270/17 102/271/17 116/285/17 117/286/17 103/272/17 89/255/17 118/287/17 119/288/17 120/289/17 121/290/17 122/291/17 123/292/17 124/293/17 

f 89/255/17 90/257/17 104/273/17

v 61.5 116.955 -3.87212
vt -1.1811 11.811
vn -1 5.55308e-31 -3.76418e-30
v 61.5 104.955 -3.87212
vt -1.1811 7.08661
v 61.5 104.955 -12.3721
vt -4.52756 7.08661
v 61.5 116.955 -12.3721
vt -4.52756 11.811
v 61.5 116.955 -13.3721
vt -4.92126 11.811
v 61.5 104.955 -13.3721
vt -4.92126 7.08661
v 61.5 104.955 -21.8721
vt -8.26772 7.08661
v 61.5 116.955 -21.8721
vt -8.26772 11.811
v 61.5 116.955 -24.3721
vt -9.25197 11.811
vt -9.25197 1.9685
vt -8.26772 1.9685
v 61.5 103.955 -21.8721
vt -8.26772 6.69291
v 61.5 103.955 -13.3721
vt -4.92126 6.69291
vt -4.92126 1.9685
vt -4.52756 1.9685
v 61.5 103.955 -12.3721
vt -4.52756 6.69291
v 61.5 103.955 -3.87212
vt -1.1811 6.69291
vt -1.1811 1.9685
vt -0.19685 1.9685
v 61.5 116.955 -1.37212
vt -0.19685 11.811
f 125/294/51 126/295/51 127/296/51 128/297/51 129/298/51 130/299/51 131/300/51 132/301/51 133/302/51 89/303/51 118/304/51 134/305/51 135/306/51 121/307/51 122/308/51 136/309/51 137/310/51 104/311/51 90/312/51 138/313/51 

v 62 104.955 -3.87212
vt -0.393701 7.08661
vt -0.19685 7.08661
v 62 116.955 -3.87212
vt -0.393701 11.811
f 139/314/35 126/315/35 125/313/35 140/316/35 

v 62 104.955 -12.3721
f 139/293/17 141/292/17 127/291/17 126/273/17 

usemtl ElwFor_Lantern_Light
vn -1 6.51977e-32 4.24654e-15
v 62 116.955 -12.3721
f 140/294/52 142/297/52 141/296/52 139/295/52 

usemtl ElwFor_Lantern_Grey
vt -0.19685 1.1811
vt -0.393701 4.52756
vt -0.393701 1.1811
f 125/317/1 142/318/1 140/319/1

vt -0.19685 4.52756
f 142/318/1 125/317/1 128/320/1

vt -0.19685 0.19685
f 138/321/1 128/320/1 125/317/1

vt -0.19685 4.92126
f 138/321/1 129/322/1 128/320/1

vt -0.19685 8.26772
f 138/321/1 132/323/1 129/322/1

vt -0.19685 9.25197
f 138/321/1 133/324/1 132/323/1

v 61 116.955 -0.872121
f 138/321/1 143/258/1 133/324/1

v 85 116.955 -0.872121
vt -9.44882 0
f 143/258/1 138/321/1 144/325/1

v 64 116.955 -1.37212
vt -1.1811 0.19685
f 144/325/1 138/321/1 145/326/1

v 82 116.955 -1.37212
vt 8.26772 11.811
vn 9.66946e-32 3.47067e-32 1
v 82 104.955 -1.37212
vt 8.26772 7.08661
v 73.5 104.955 -1.37212
vt 4.92126 7.08661
v 73.5 116.955 -1.37212
vt 4.92126 11.811
v 72.5 116.955 -1.37212
vt 4.52756 11.811
v 72.5 104.955 -1.37212
vt 4.52756 7.08661
v 64 104.955 -1.37212
vt 1.1811 7.08661
vt 1.1811 11.811
vt 0.19685 11.811
vt 0.19685 1.9685
vt 1.1811 1.9685
v 64 103.955 -1.37212
vt 1.1811 6.69291
v 72.5 103.955 -1.37212
vt 4.52756 6.69291
vt 4.52756 1.9685
vt 4.92126 1.9685
v 73.5 103.955 -1.37212
vt 4.92126 6.69291
v 82 103.955 -1.37212
vt 8.26772 6.69291
vt 8.26772 1.9685
vt 9.25197 1.9685
v 84.5 116.955 -1.37212
vt 9.25197 11.811
f 146/327/53 147/328/53 148/329/53 149/330/53 150/331/53 151/332/53 152/333/53 145/334/53 138/335/53 90/336/53 91/337/53 153/338/53 154/339/53 92/340/53 93/341/53 155/342/53 156/343/53 95/344/53 96/345/53 157/346/53 

v 82 104.955 -1.87212
vn -1 -1.50398e-15 -1.95094e-31
v 82 116.955 -1.87212
f 158/314/54 147/315/54 146/313/54 159/316/54 

v 73.5 104.955 -1.87212
f 158/276/17 160/263/17 148/262/17 147/264/17 

usemtl ElwFor_Lantern_Light
v 73.5 116.955 -1.87212
f 159/327/33 161/330/33 160/329/33 158/328/33 

usemtl ElwFor_Lantern_Grey
vt -8.26772 0.393701
vt -4.92126 0.19685
vt -4.92126 0.393701
f 159/347/1 149/348/1 161/349/1

vt -8.26772 0.19685
f 146/350/1 149/348/1 159/347/1

f 144/325/1 149/348/1 146/350/1

vt -4.52756 0.19685
f 144/325/1 150/351/1 149/348/1

f 144/325/1 145/326/1 150/351/1

v 72.5 116.955 -1.87212
vt -4.52756 0.393701
f 150/351/1 145/326/1 162/352/1

v 64 116.955 -1.87212
vt -1.1811 0.393701
f 162/352/1 145/326/1 163/353/1

vt 0.19685 7.08661
v 64 104.955 -1.87212
vt 0.393701 7.08661
vt 0.393701 11.811
f 145/335/22 152/354/22 164/355/22 163/356/22 

v 72.5 104.955 -1.87212
f 165/275/17 164/274/17 152/260/17 151/261/17 

usemtl ElwFor_Lantern_Light
f 163/334/33 164/333/33 165/332/33 162/331/33 

usemtl ElwFor_Lantern_Grey
f 162/316/20 165/314/20 151/315/20 150/313/20 

vt -9.25197 0.19685
f 144/325/1 146/350/1 157/357/1

v 85 116.955 -24.8721
vt -9.44882 9.44882
f 144/325/1 157/357/1 166/358/1

v 84.5 116.955 -3.87212
vt -9.25197 1.1811
f 167/359/1 166/358/1 157/357/1

v 84.5 116.955 -21.8721
vt -9.25197 8.26772
f 168/360/1 166/358/1 167/359/1

v 84.5 116.955 -24.3721
vt -9.25197 9.25197
f 169/361/1 166/358/1 168/360/1

v 82 116.955 -24.3721
vt -8.26772 9.25197
f 170/362/1 166/358/1 169/361/1

v 73.5 116.955 -23.8721
vt -4.92126 9.05512
f 171/363/1 166/358/1 170/362/1

v 73.5 116.955 -24.3721
vt -4.92126 9.25197
f 172/364/1 166/358/1 171/363/1

v 72.5 116.955 -24.3721
vt -4.52756 9.25197
f 173/365/1 166/358/1 172/364/1

v 64 116.955 -24.3721
vt -1.1811 9.25197
f 174/366/1 166/358/1 173/365/1

f 133/324/1 166/358/1 174/366/1

v 61 116.955 -24.8721
f 133/324/1 175/254/1 166/358/1

f 175/254/1 133/324/1 143/258/1

vt 0 11.811
v 61 120.955 -0.872121
vt 0 13.3858
v 61 120.955 -24.8721
vt -9.44882 13.3858
vt -9.44882 11.811
f 143/367/20 176/368/20 177/369/20 175/370/20 

vt 9.44882 11.811
v 85 120.955 -0.872121
vt 9.44882 13.3858
f 144/371/33 178/372/33 176/368/33 143/367/33 

v 85 120.955 -24.8721
f 166/371/22 179/372/22 178/368/22 144/367/22 

f 175/367/35 177/368/35 179/369/35 166/370/35 

vt -9.44882 2.78388
vn 0.408248 0.816497 -0.408248
vt 1.27697e-17 2.78388
vn -0.408248 0.816497 -0.408248
v 62 121.955 -23.8721
vt -0.393701 3.34066
v 84 121.955 -23.8721
vt -9.05512 3.34066
f 179/373/55 177/374/56 180/375/56 181/376/55 

vt -9.44882 9.46521
vt 0 9.46521
vn -0.408248 0.816497 0.408248
v 62 121.955 -1.87212
vt -0.393701 10.022
vt -9.05512 10.022
f 177/377/56 176/378/57 182/379/57 180/380/56 

vt 9.44882 9.46521
vn 0.408248 0.816497 0.408248
v 84 121.955 -1.87212
vt 9.05512 10.022
vt 0.393701 10.022
f 176/378/57 178/381/58 183/382/58 182/383/57 

vt 0 2.78388
vt 9.44882 2.78388
vt 9.05512 3.34066
vt 0.393701 3.34066
f 178/384/58 179/385/55 181/386/55 183/387/58 

vt 9.05512 0.393701
vt 9.05512 9.05512
vt 0.393701 9.05512
vt 0.393701 0.393701
f 183/388/17 181/389/17 180/390/17 182/391/17 

v 64 104.955 -24.3721
v 72.5 104.955 -24.3721
v 73.5 104.955 -24.3721
v 82 104.955 -24.3721
v 82 103.955 -24.3721
v 73.5 103.955 -24.3721
v 72.5 103.955 -24.3721
v 64 103.955 -24.3721
f 174/294/35 184/295/35 185/296/35 173/297/35 172/298/35 186/299/35 187/300/35 170/301/35 169/302/35 99/303/35 100/304/35 188/305/35 189/306/35 101/307/35 102/308/35 190/309/35 191/310/35 103/311/35 89/312/35 133/313/35 

v 64 104.955 -23.8721
vt 9.05512 7.08661
vt 9.25197 7.08661
v 64 116.955 -23.8721
vt 9.05512 11.811
f 192/392/22 184/393/22 174/346/22 193/394/22 

v 72.5 104.955 -23.8721
f 192/286/17 194/285/17 185/271/17 184/272/17 

usemtl ElwFor_Lantern_Light
v 72.5 116.955 -23.8721
f 193/294/35 195/297/35 194/296/35 192/295/35 

usemtl ElwFor_Lantern_Grey
vt -4.52756 9.05512
vt -1.1811 9.05512
f 195/395/1 193/396/1 173/365/1

f 174/366/1 173/365/1 193/396/1

vt -9.05512 7.08661
vt -9.05512 11.811
vt -9.25197 7.08661
f 194/397/20 195/398/20 173/302/20 185/399/20 

v 73.5 104.955 -23.8721
f 171/394/22 196/392/22 186/393/22 172/346/22 

usemtl ElwFor_Lantern_Light
v 82 116.955 -23.8721
v 82 104.955 -23.8721
f 197/301/35 198/300/35 196/299/35 171/298/35 

usemtl ElwFor_Lantern_Grey
f 170/302/20 187/399/20 198/397/20 197/398/20 

f 196/284/17 198/283/17 187/269/17 186/270/17 

vt -8.26772 9.05512
f 197/400/1 171/363/1 170/362/1

vn 1 -2.77654e-31 7.18303e-30
v 84.5 104.955 -21.8721
v 84.5 104.955 -13.3721
v 84.5 116.955 -13.3721
v 84.5 116.955 -12.3721
v 84.5 104.955 -12.3721
v 84.5 104.955 -3.87212
v 84.5 103.955 -3.87212
v 84.5 103.955 -12.3721
v 84.5 103.955 -13.3721
v 84.5 103.955 -21.8721
f 168/327/59 199/328/59 200/329/59 201/330/59 202/331/59 203/332/59 204/333/59 167/334/59 157/335/59 96/336/59 97/337/59 205/338/59 206/339/59 110/340/59 111/341/59 207/342/59 208/343/59 98/344/59 99/345/59 169/346/59 

v 84 104.955 -21.8721
vn 0 -3.00796e-15 1
v 84 116.955 -21.8721
f 209/392/60 199/393/60 168/346/60 210/394/60 

v 84 104.955 -13.3721
f 209/282/17 211/281/17 200/280/17 199/267/17 

usemtl ElwFor_Lantern_Light
vn 1 -6.40202e-30 4.24654e-15
v 84 116.955 -13.3721
f 210/327/61 212/330/61 211/329/61 209/328/61 

usemtl ElwFor_Lantern_Grey
vt -9.05512 8.26772
vt -9.25197 4.92126
vt -9.05512 4.92126
f 210/401/1 201/402/1 212/403/1

f 201/402/1 210/401/1 168/360/1

vt -9.25197 4.52756
f 201/402/1 168/360/1 202/404/1

f 167/359/1 202/404/1 168/360/1

v 84 116.955 -3.87212
vt -9.05512 1.1811
f 213/405/1 202/404/1 167/359/1

v 84 116.955 -12.3721
vt -9.05512 4.52756
f 202/404/1 213/405/1 214/406/1

usemtl ElwFor_Lantern_Light
vn 1 -6.51977e-32 -4.24654e-15
v 84 104.955 -3.87212
v 84 104.955 -12.3721
f 213/334/62 215/333/62 216/332/62 214/331/62 

usemtl ElwFor_Lantern_Grey
f 167/302/35 204/399/35 215/397/35 213/398/35 

f 216/278/17 215/277/17 204/266/17 203/279/17 

vn 4.98826e-16 0 1
f 214/394/63 216/392/63 203/393/63 202/346/63 

vn -4.98826e-16 0 -1
f 211/397/64 212/398/64 201/302/64 200/399/64 

v 84 103.955 -3.87212
vt -9.05512 6.69291
vt -9.25197 6.69291
vt -9.05512 1.9685
f 217/407/35 205/408/35 97/303/35 108/409/35 

v 84 103.955 -12.3721
f 217/405/1 218/406/1 206/404/1 205/359/1 

usemtl ElwFor_Lantern_Light
vn 1 0 -4.24654e-15
f 108/337/65 109/340/65 218/339/65 217/338/65 

usemtl ElwFor_Lantern_Grey
f 108/277/17 110/279/17 109/278/17

f 110/279/17 108/277/17 97/266/17

f 110/279/17 97/266/17 111/280/17

f 98/267/17 111/280/17 97/266/17

f 113/282/17 111/280/17 98/267/17

f 111/280/17 113/282/17 112/281/17

usemtl ElwFor_Lantern_Light
vn 1 6.42131e-30 4.24654e-15
v 84 103.955 -21.8721
v 84 103.955 -13.3721
f 113/344/66 219/343/66 220/342/66 112/341/66 

usemtl ElwFor_Lantern_Grey
vn 0 3.00796e-15 1
vt 9.25197 6.69291
vt 9.05512 6.69291
vt 9.05512 1.9685
f 98/345/67 208/410/67 219/411/67 113/412/67 

f 220/403/1 219/401/1 208/360/1 207/402/1 

f 112/409/64 220/407/64 207/408/64 111/303/64 

f 218/411/63 109/412/63 110/345/63 206/410/63 

v 82 103.955 -23.8721
f 221/407/20 188/408/20 100/303/20 114/409/20 

v 73.5 103.955 -23.8721
f 221/400/1 222/363/1 189/364/1 188/362/1 

usemtl ElwFor_Lantern_Light
f 114/304/35 115/307/35 222/306/35 221/305/35 

usemtl ElwFor_Lantern_Grey
f 114/283/17 101/270/17 115/284/17

f 100/269/17 101/270/17 114/283/17

f 222/411/22 115/412/22 101/345/22 189/410/22 

v 72.5 103.955 -23.8721
f 116/409/20 223/407/20 190/408/20 102/303/20 

usemtl ElwFor_Lantern_Light
v 64 103.955 -23.8721
f 117/311/35 224/310/35 223/309/35 116/308/35 

usemtl ElwFor_Lantern_Grey
f 103/345/22 191/410/22 224/411/22 117/412/22 

f 223/395/1 224/396/1 191/366/1 190/365/1 

f 116/285/17 103/272/17 117/286/17

f 102/271/17 103/272/17 116/285/17

f 160/355/22 161/356/22 149/335/22 148/354/22 

v 64 103.955 -1.87212
vt 0.393701 6.69291
vt 0.19685 6.69291
vt 0.393701 1.9685
f 225/413/22 153/414/22 91/336/22 105/415/22 

v 72.5 103.955 -1.87212
f 225/353/1 226/352/1 154/351/1 153/326/1 

usemtl ElwFor_Lantern_Light
f 105/337/33 106/340/33 226/339/33 225/338/33 

usemtl ElwFor_Lantern_Grey
f 106/275/17 105/274/17 92/261/17

f 91/260/17 92/261/17 105/274/17

vt -0.393701 6.69291
vt -0.393701 1.9685
vt -0.19685 6.69291
f 226/416/20 106/417/20 92/312/20 154/418/20 

v 73.5 103.955 -1.87212
f 94/415/22 227/413/22 155/414/22 93/336/22 

usemtl ElwFor_Lantern_Light
v 82 103.955 -1.87212
f 107/344/33 228/343/33 227/342/33 94/341/33 

usemtl ElwFor_Lantern_Grey
vn -1 1.50398e-15 -1.95094e-31
f 95/312/68 156/418/68 228/416/68 107/417/68 

f 227/349/1 228/347/1 156/350/1 155/348/1 

f 107/276/17 94/263/17 95/264/17

v 62 116.955 -21.8721
vt -0.393701 8.26772
f 229/419/1 129/322/1 132/323/1

v 62 116.955 -13.3721
vt -0.393701 4.92126
f 129/322/1 229/419/1 230/420/1

usemtl ElwFor_Lantern_Light
vn -1 6.40202e-30 -4.24654e-15
v 62 104.955 -21.8721
v 62 104.955 -13.3721
f 229/301/69 231/300/69 232/299/69 230/298/69 

usemtl ElwFor_Lantern_Grey
vn 9.66989e-31 -3.00796e-15 1
f 132/335/70 131/354/70 231/355/70 229/356/70 

f 232/289/17 231/288/17 131/287/17 130/290/17 

vn 1.79847e-29 0 -1
f 230/316/71 232/314/71 130/315/71 129/313/71 

vn -1.79847e-29 0 1
f 141/355/72 142/356/72 128/335/72 127/354/72 

f 89/255/17 121/290/17 118/287/17

f 89/255/17 122/291/17 121/290/17

f 89/255/17 104/273/17 122/291/17

f 124/293/17 122/291/17 104/273/17

f 122/291/17 124/293/17 123/292/17

usemtl ElwFor_Lantern_Light
vn -1 0 4.24654e-15
v 62 103.955 -3.87212
v 62 103.955 -12.3721
f 124/311/73 233/310/73 234/309/73 123/308/73 

usemtl ElwFor_Lantern_Grey
f 104/312/35 137/418/35 233/416/35 124/417/35 

f 234/318/1 233/319/1 137/317/1 136/320/1 

f 123/415/72 234/413/72 136/414/72 122/336/72 

f 120/289/17 118/287/17 121/290/17

f 118/287/17 120/289/17 119/288/17

usemtl ElwFor_Lantern_Light
vn -1 -6.42131e-30 -4.24654e-15
v 62 103.955 -13.3721
v 62 103.955 -21.8721
f 119/304/74 120/307/74 235/306/74 236/305/74 

usemtl ElwFor_Lantern_Grey
f 235/416/71 120/417/71 121/312/71 135/418/71 

f 236/419/1 235/420/1 135/322/1 134/323/1 

vn -1.18753e-30 3.00796e-15 1
f 236/413/75 134/414/75 118/336/75 119/415/75 

g Mesh4 ElwFor_Lantern_C04_1 ElwFor_Lantern_C02_1 Model

v 70.5 132.955 -13.3721
v 72 134.455 -13.3721
vt -0.590551 0.590551
v 75.5 132.955 -13.3721
vt -1.9685 0
f 237/258/35 238/421/35 239/422/35

v 70.5 140.955 -13.3721
vt 0 3.14961
f 238/421/35 237/258/35 240/423/35

vt -0.393701 3.14961
vt -0.393701 0
v 70.5 132.955 -12.3721
v 70.5 140.955 -12.3721
f 240/424/20 237/425/20 241/258/20 242/423/20 

vt -1.9685 0.393701
v 75.5 132.955 -12.3721
f 237/230/1 239/426/1 243/422/1 241/258/1 

vt 0.393701 0
v 75.5 140.955 -13.3721
vt 0.393701 3.14961
v 75.5 140.955 -12.3721
f 239/427/22 244/428/22 245/423/22 243/258/22 

v 74 134.455 -13.3721
vt -1.37795 0.590551
vt -1.9685 3.14961
f 239/422/35 246/429/35 244/430/35

f 246/429/35 239/422/35 238/421/35

vt 1.37795 0.393701
vt 0.590551 0.393701
v 72 134.455 -12.3721
vt 0.590551 7.10543e-15
v 74 134.455 -12.3721
vt 1.37795 0
f 246/431/17 238/432/17 247/433/17 248/434/17 

vt 0.393701 0.590551
v 72 139.455 -13.3721
vt 0.393701 2.55906
v 72 139.455 -12.3721
vt 7.10543e-15 2.55906
vt 7.10543e-15 0.590551
f 238/435/22 249/436/22 250/437/22 247/438/22 

vt -0.590551 2.55906
f 238/421/35 240/423/35 249/439/35

v 74 139.455 -13.3721
vt -1.37795 2.55906
f 249/439/35 240/423/35 251/440/35

f 244/430/35 251/440/35 240/423/35

f 244/430/35 246/429/35 251/440/35

vt -0.393701 2.55906
vt -0.393701 0.590551
vt 0 0.590551
v 74 139.455 -12.3721
vt 0 2.55906
f 251/441/20 246/442/20 248/443/20 252/444/20 

vt 1.37795 0.590551
vt 1.9685 3.14961
vt 1.37795 2.55906
f 248/445/33 245/446/33 252/447/33

vt 1.9685 0
f 248/445/33 243/448/33 245/446/33

f 243/448/33 248/445/33 241/258/33

vt 0.590551 0.590551
f 247/449/33 241/258/33 248/445/33

f 241/258/33 247/449/33 242/423/33

vt 0.590551 2.55906
f 242/423/33 247/449/33 250/450/33

f 242/423/33 250/450/33 245/446/33

f 252/447/33 245/446/33 250/450/33

vt -0.590551 0.393701
vt -1.37795 0.393701
vt -1.37795 0
vt -0.590551 7.10543e-15
f 249/451/1 251/452/1 252/453/1 250/454/1 

vt 1.9685 0.393701
f 244/455/17 240/230/17 242/258/17 245/448/17 

g Mesh5 ElwFor_Lantern_C05_1 ElwFor_Lantern_C02_1 Model

v 72.5 124.455 -11.8721
vn -1 -3.08839e-15 -1.15755e-13
v 72.5 121.955 -11.8721
vt -0.590551 1.5748
v 72.5 121.955 -10.3721
vt -6.41149e-15 1.5748
v 72.5 125.955 -10.3721
vt -6.41149e-15 -1.2159e-15
v 72.5 125.955 -15.3721
vt -1.9685 -1.2159e-15
v 72.5 121.955 -15.3721
vt -1.9685 1.5748
v 72.5 121.955 -13.8721
vt -1.37795 1.5748
v 72.5 124.455 -13.8721
f 253/421/76 254/456/76 255/457/76 256/458/76 257/459/76 258/460/76 259/461/76 260/429/76 

v 73.5 124.455 -11.8721
vt 3.74869e-14 0.590551
vn 1.17311e-13 0 -1
v 73.5 121.955 -11.8721
vt 3.74869e-14 1.5748
vt 0.393701 1.5748
f 261/462/77 262/463/77 254/464/77 253/435/77 

v 73.5 121.955 -10.3721
vt 0 1.5748
vn 1 -2.89537e-15 1.15755e-13
vt 0.590551 1.5748
v 73.5 124.455 -13.8721
v 73.5 121.955 -13.8721
vt 1.37795 1.5748
v 73.5 121.955 -15.3721
vt 1.9685 1.5748
v 73.5 125.955 -15.3721
vt 1.9685 1.00461e-29
v 73.5 125.955 -10.3721
f 263/465/78 262/466/78 261/449/78 264/445/78 265/467/78 266/468/78 267/469/78 268/258/78 

vt 7.10543e-15 0.393701
vt 0.590551 3.55271e-14
f 255/470/1 254/432/1 262/471/1 263/258/1 

vn -1.17311e-13 -2.63895e-28 1
vt -0.393701 1.53031e-42
vt -0.393701 1.5748
f 268/258/79 256/472/79 255/473/79 263/465/79 

vt -7.10543e-15 0.393701
f 268/258/17 267/422/17 257/426/17 256/474/17 

vt 6.53239e-15 5.22063e-28
vn 1.17311e-13 2.65208e-28 -1
vt 6.53239e-15 1.5748
vt 0.393701 5.22063e-28
f 267/475/80 266/476/80 258/464/80 257/477/80 

vt 1.37795 1.42109e-14
f 259/431/1 258/455/1 266/448/1 265/478/1 

vt -1.87835e-14 0.590551
vn -1.17311e-13 0 1
vt -1.87835e-14 1.5748
f 264/479/81 260/442/81 259/473/81 265/480/81 

f 264/478/1 261/471/1 253/432/1 260/431/1 

g Mesh6 ElwFor_Lantern_C04_2 ElwFor_Lantern_C02_1 Model

v 70.5 122.955 -13.3721
v 72 124.455 -13.3721
v 75.5 122.955 -13.3721
f 269/258/35 270/421/35 271/422/35

v 70.5 130.955 -13.3721
f 270/421/35 269/258/35 272/423/35

v 70.5 122.955 -12.3721
v 70.5 130.955 -12.3721
f 272/424/20 269/425/20 273/258/20 274/423/20 

v 75.5 122.955 -12.3721
f 269/230/1 271/426/1 275/422/1 273/258/1 

v 75.5 130.955 -13.3721
v 75.5 130.955 -12.3721
f 271/427/22 276/428/22 277/423/22 275/258/22 

v 74 124.455 -13.3721
f 271/422/35 278/429/35 276/430/35

f 278/429/35 271/422/35 270/421/35

v 72 124.455 -12.3721
v 74 124.455 -12.3721
f 278/431/17 270/432/17 279/433/17 280/434/17 

v 72 129.455 -13.3721
v 72 129.455 -12.3721
f 270/435/22 281/436/22 282/437/22 279/438/22 

f 270/421/35 272/423/35 281/439/35

v 74 129.455 -13.3721
f 281/439/35 272/423/35 283/440/35

f 276/430/35 283/440/35 272/423/35

f 276/430/35 278/429/35 283/440/35

v 74 129.455 -12.3721
f 283/441/20 278/442/20 280/443/20 284/444/20 

f 280/445/33 277/446/33 284/447/33

f 280/445/33 275/448/33 277/446/33

f 275/448/33 280/445/33 273/258/33

f 279/449/33 273/258/33 280/445/33

f 273/258/33 279/449/33 274/423/33

f 274/423/33 279/449/33 282/450/33

f 274/423/33 282/450/33 277/446/33

f 284/447/33 277/446/33 282/450/33

f 281/451/1 283/452/1 284/453/1 282/454/1 

f 276/455/17 272/230/17 274/258/17 277/448/17 

g Mesh7 ElwFor_Lantern_C04_3 ElwFor_Lantern_C02_1 Model

v 72.5 127.955 -10.3721
vn -1 0 -1.13992e-13
v 72.5 129.455 -11.8721
v 72.5 127.955 -15.3721
f 285/258/82 286/421/82 287/422/82

v 72.5 135.955 -10.3721
f 286/421/82 285/258/82 288/423/82

vn -1.13992e-13 0 1
v 73.5 127.955 -10.3721
v 73.5 135.955 -10.3721
f 288/424/83 285/425/83 289/258/83 290/423/83 

v 73.5 127.955 -15.3721
f 285/230/1 287/426/1 291/422/1 289/258/1 

vn 1.13992e-13 0 -1
v 72.5 135.955 -15.3721
v 73.5 135.955 -15.3721
f 287/427/84 292/428/84 293/423/84 291/258/84 

v 72.5 129.455 -13.8721
f 287/422/82 294/429/82 292/430/82

f 294/429/82 287/422/82 286/421/82

v 73.5 129.455 -11.8721
v 73.5 129.455 -13.8721
f 294/431/17 286/432/17 295/433/17 296/434/17 

v 72.5 134.455 -11.8721
v 73.5 134.455 -11.8721
f 286/435/84 297/436/84 298/437/84 295/438/84 

f 286/421/82 288/423/82 297/439/82

v 72.5 134.455 -13.8721
f 297/439/82 288/423/82 299/440/82

f 292/430/82 299/440/82 288/423/82

f 292/430/82 294/429/82 299/440/82

v 73.5 134.455 -13.8721
f 299/441/83 294/442/83 296/443/83 300/444/83 

vn 1 0 1.13992e-13
f 296/445/85 293/446/85 300/447/85

f 296/445/85 291/448/85 293/446/85

f 291/448/85 296/445/85 289/258/85

f 295/449/85 289/258/85 296/445/85

f 289/258/85 295/449/85 290/423/85

f 290/423/85 295/449/85 298/450/85

f 290/423/85 298/450/85 293/446/85

f 300/447/85 293/446/85 298/450/85

f 297/451/1 299/452/1 300/453/1 298/454/1 

f 292/455/17 288/230/17 290/258/17 293/448/17 

